<svg xmlns="http://www.w3.org/2000/svg" width="500" height="500" version="1.1" viewBox="0 0 2000 2000"><desc>Generate from recti package</desc><g transform="translate(1000,1000)"><rect width="54" height="201" x="-877" y="587" fill="#0ff" stroke="#000"/><rect width="61" height="21" x="-850" y="816" fill="#0ff" stroke="#000"/><rect width="15" height="15" x="-789" y="822" fill="#0ff" stroke="#000"/><rect width="82" height="142" x="-774" y="822" fill="#0ff" stroke="#000"/><rect width="49" height="75" x="-772" y="-106" fill="#0ff" stroke="#000"/><rect width="38" height="73" x="-760" y="156" fill="#0ff" stroke="#000"/><rect width="206" height="64" x="-594" y="923" fill="#0ff" stroke="#000"/><rect width="32" height="97" x="-84" y="596" fill="#0ff" stroke="#000"/><rect width="68" height="159" x="-47" y="596" fill="#0ff" stroke="#000"/><rect width="70" height="233" x="21" y="596" fill="#0ff" stroke="#000"/><rect width="107" height="115" x="91" y="596" fill="#0ff" stroke="#000"/><rect width="16" height="12" x="-388" y="923" fill="#0ff" stroke="#000"/><rect width="176" height="126" x="-516" y="776" fill="#0ff" stroke="#000"/><rect width="159" height="73" x="-340" y="829" fill="#0ff" stroke="#000"/><rect width="67" height="188" x="-516" y="584" fill="#0ff" stroke="#000"/><rect width="165" height="295" x="-449" y="477" fill="#0ff" stroke="#000"/><rect width="113" height="140" x="-284" y="632" fill="#0ff" stroke="#000"/><rect width="28" height="67" x="-153" y="690" fill="#0ff" stroke="#000"/><rect width="49" height="69" x="-284" y="477" fill="#0ff" stroke="#000"/><rect width="212" height="78" x="-235" y="477" fill="#0ff" stroke="#000"/><rect width="59" height="102" x="-103" y="265" fill="#0ff" stroke="#000"/><rect width="68" height="170" x="-44" y="197" fill="#0ff" stroke="#000"/><rect width="109" height="76" x="-23" y="479" fill="#0ff" stroke="#000"/><rect width="54" height="127" x="-645" y="252" fill="#0ff" stroke="#000"/><rect width="5" height="16" x="-641" y="-320" fill="#0ff" stroke="#000"/><rect width="92" height="101" x="-636" y="-405" fill="#0ff" stroke="#000"/><rect width="37" height="94" x="-591" y="252" fill="#0ff" stroke="#000"/><rect width="83" height="107" x="-447" y="185" fill="#0ff" stroke="#000"/><rect width="57" height="48" x="-364" y="185" fill="#0ff" stroke="#000"/><rect width="52" height="58" x="-307" y="185" fill="#0ff" stroke="#000"/><rect width="50" height="15" x="-305" y="326" fill="#0ff" stroke="#000"/><rect width="76" height="156" x="-255" y="185" fill="#0ff" stroke="#000"/><rect width="44" height="36" x="-242" y="39" fill="#0ff" stroke="#000"/><rect width="56" height="17" x="-119" y="39" fill="#0ff" stroke="#000"/><rect width="169" height="81" x="-94" y="-284" fill="#0ff" stroke="#000"/><rect width="44" height="70" x="-55" y="39" fill="#0ff" stroke="#000"/><rect width="155" height="264" x="-11" y="-155" fill="#0ff" stroke="#000"/><rect width="126" height="124" x="144" y="-155" fill="#0ff" stroke="#000"/><rect width="107" height="120" x="219" y="-25" fill="#0ff" stroke="#000"/><rect width="56" height="128" x="270" y="-159" fill="#0ff" stroke="#000"/><rect width="116" height="273" x="279" y="-639" fill="#0ff" stroke="#000"/><rect width="78" height="251" x="478" y="111" fill="#0ff" stroke="#000"/><rect width="125" height="93" x="497" y="-371" fill="#0ff" stroke="#000"/><rect width="72" height="74" x="550" y="-39" fill="#0ff" stroke="#000"/><rect width="132" height="176" x="560" y="111" fill="#0ff" stroke="#000"/><rect width="19" height="60" x="656" y="-371" fill="#0ff" stroke="#000"/><rect width="145" height="153" x="485" y="-639" fill="#0ff" stroke="#000"/><rect width="69" height="75" x="630" y="-639" fill="#0ff" stroke="#000"/><rect width="19" height="21" x="742" y="-525" fill="#0ff" stroke="#000"/><rect width="31" height="95" x="761" y="-525" fill="#0ff" stroke="#000"/><rect width="36" height="95" x="-503" y="-647" fill="#0ff" stroke="#000"/><rect width="140" height="76" x="-429" y="-80" fill="#0ff" stroke="#000"/><rect width="69" height="99" x="-213" y="-175" fill="#0ff" stroke="#000"/><rect width="66" height="211" x="-435" y="-647" fill="#0ff" stroke="#000"/><rect width="52" height="137" x="-429" y="-405" fill="#0ff" stroke="#000"/><rect width="130" height="287" x="-313" y="-610" fill="#0ff" stroke="#000"/><rect width="22" height="72" x="-179" y="-422" fill="#0ff" stroke="#000"/><rect width="124" height="157" x="-157" y="-507" fill="#0ff" stroke="#000"/><rect width="124" height="31" x="-131" y="-695" fill="#0ff" stroke="#000"/><rect width="99" height="106" x="-33" y="-507" fill="#0ff" stroke="#000"/><rect width="110" height="250" x="66" y="-651" fill="#0ff" stroke="#000"/><rect width="27" height="21" x="-335" y="-883" fill="#0ff" stroke="#000"/><rect width="114" height="29" x="-308" y="-883" fill="#0ff" stroke="#000"/><rect width="62" height="16" x="-832" y="194" fill="#0ff" stroke="#000"/><rect width="34" height="128" x="-942" y="-992" fill="#0ff" stroke="#000"/><rect width="58" height="164" x="-927" y="-809" fill="#0ff" stroke="#000"/><rect width="59" height="17" x="-903" y="-992" fill="#0ff" stroke="#000"/><rect width="121" height="169" x="-869" y="-814" fill="#0ff" stroke="#000"/><rect width="115" height="120" x="-868" y="-601" fill="#0ff" stroke="#000"/><rect width="51" height="24" x="-844" y="-999" fill="#0ff" stroke="#000"/><rect width="236" height="66" x="-793" y="-999" fill="#0ff" stroke="#000"/><rect width="136" height="285" x="-741" y="-814" fill="#0ff" stroke="#000"/><rect width="48" height="180" x="-605" y="-814" fill="#0ff" stroke="#000"/><rect width="252" height="63" x="-537" y="-999" fill="#0ff" stroke="#000"/><rect width="100" height="29" x="-385" y="-930" fill="#0ff" stroke="#000"/><rect width="57" height="98" x="-285" y="-999" fill="#0ff" stroke="#000"/><rect width="31" height="38" x="77" y="923" fill="#0ff" stroke="#000"/><rect width="98" height="97" x="204" y="-999" fill="#0ff" stroke="#000"/><rect width="49" height="174" x="292" y="497" fill="#0ff" stroke="#000"/><rect width="18" height="40" x="364" y="678" fill="#0ff" stroke="#000"/><rect width="45" height="34" x="460" y="956" fill="#0ff" stroke="#000"/><rect width="72" height="64" x="505" y="926" fill="#0ff" stroke="#000"/><rect width="89" height="49" x="844" y="921" fill="#0ff" stroke="#000"/><rect width="104" height="285" x="452" y="433" fill="#0ff" stroke="#000"/><rect width="24" height="90" x="467" y="828" fill="#0ff" stroke="#000"/><rect width="93" height="47" x="491" y="871" fill="#0ff" stroke="#000"/><rect width="128" height="35" x="467" y="720" fill="#0ff" stroke="#000"/><rect width="133" height="185" x="556" y="433" fill="#0ff" stroke="#000"/><rect width="12" height="18" x="598" y="737" fill="#0ff" stroke="#000"/><rect width="79" height="67" x="610" y="737" fill="#0ff" stroke="#000"/><rect width="106" height="199" x="753" y="502" fill="#0ff" stroke="#000"/><rect width="49" height="145" x="859" y="502" fill="#0ff" stroke="#000"/><rect width="60" height="50" x="741" y="433" fill="#0ff" stroke="#000"/><line x1="-925" x2="-898" y1="-928" y2="-727" stroke="#000"/><line x1="-925" x2="-873" y1="-928" y2="-983" stroke="#000"/><line x1="-925" x2="-808" y1="-928" y2="-729" stroke="#000"/><line x1="-898" x2="-808" y1="-727" y2="-729" stroke="#000"/><line x1="-898" x2="-810" y1="-727" y2="-541" stroke="#000"/><line x1="-808" x2="-810" y1="-729" y2="-541" stroke="#000"/><line x1="-850" x2="-819" y1="687" y2="826" stroke="#000"/><line x1="-873" x2="-818" y1="-983" y2="-987" stroke="#000"/><line x1="-925" x2="-818" y1="-928" y2="-987" stroke="#000"/><line x1="-873" x2="-675" y1="-983" y2="-966" stroke="#000"/><line x1="-818" x2="-675" y1="-987" y2="-966" stroke="#000"/><line x1="-925" x2="-675" y1="-928" y2="-966" stroke="#000"/><line x1="-808" x2="-675" y1="-729" y2="-966" stroke="#000"/><line x1="-850" x2="-781" y1="687" y2="829" stroke="#000"/><line x1="-819" x2="-781" y1="826" y2="829" stroke="#000"/><line x1="-850" x2="-733" y1="687" y2="893" stroke="#000"/><line x1="-819" x2="-733" y1="826" y2="893" stroke="#000"/><line x1="-781" x2="-733" y1="829" y2="893" stroke="#000"/><line x1="-801" x2="-741" y1="202" y2="192" stroke="#000"/><line x1="-675" x2="-673" y1="-966" y2="-671" stroke="#000"/><line x1="-808" x2="-673" y1="-729" y2="-671" stroke="#000"/><line x1="-810" x2="-673" y1="-541" y2="-671" stroke="#000"/><line x1="-741" x2="-618" y1="192" y2="315" stroke="#000"/><line x1="-810" x2="-590" y1="-541" y2="-354" stroke="#000"/><line x1="-638" x2="-590" y1="-312" y2="-354" stroke="#000"/><line x1="-675" x2="-581" y1="-966" y2="-724" stroke="#000"/><line x1="-673" x2="-581" y1="-671" y2="-724" stroke="#000"/><line x1="-733" x2="-491" y1="893" y2="955" stroke="#000"/><line x1="-618" x2="-572" y1="315" y2="299" stroke="#000"/><line x1="-675" x2="-411" y1="-966" y2="-967" stroke="#000"/><line x1="-491" x2="-428" y1="955" y2="839" stroke="#000"/><line x1="-428" x2="-482" y1="839" y2="678" stroke="#000"/><line x1="-581" x2="-485" y1="-724" y2="-599" stroke="#000"/><line x1="-673" x2="-485" y1="-671" y2="-599" stroke="#000"/><line x1="-482" x2="-366" y1="678" y2="624" stroke="#000"/><line x1="-428" x2="-366" y1="839" y2="624" stroke="#000"/><line x1="-572" x2="-405" y1="299" y2="238" stroke="#000"/><line x1="-485" x2="-402" y1="-599" y2="-541" stroke="#000"/><line x1="-590" x2="-402" y1="-354" y2="-541" stroke="#000"/><line x1="-402" x2="-403" y1="-541" y2="-336" stroke="#000"/><line x1="-590" x2="-403" y1="-354" y2="-336" stroke="#000"/><line x1="-428" x2="-380" y1="839" y2="929" stroke="#000"/><line x1="-491" x2="-380" y1="955" y2="929" stroke="#000"/><line x1="-411" x2="-335" y1="-967" y2="-915" stroke="#000"/><line x1="-405" x2="-335" y1="238" y2="209" stroke="#000"/><line x1="-482" x2="-260" y1="678" y2="865" stroke="#000"/><line x1="-366" x2="-260" y1="624" y2="865" stroke="#000"/><line x1="-428" x2="-260" y1="839" y2="865" stroke="#000"/><line x1="-380" x2="-260" y1="929" y2="865" stroke="#000"/><line x1="-491" x2="-260" y1="955" y2="865" stroke="#000"/><line x1="-411" x2="-321" y1="-967" y2="-872" stroke="#000"/><line x1="-335" x2="-321" y1="-915" y2="-872" stroke="#000"/><line x1="-402" x2="-248" y1="-541" y2="-466" stroke="#000"/><line x1="-403" x2="-248" y1="-336" y2="-466" stroke="#000"/><line x1="-411" x2="-251" y1="-967" y2="-868" stroke="#000"/><line x1="-335" x2="-251" y1="-915" y2="-868" stroke="#000"/><line x1="-321" x2="-251" y1="-872" y2="-868" stroke="#000"/><line x1="-335" x2="-281" y1="209" y2="214" stroke="#000"/><line x1="-405" x2="-281" y1="238" y2="214" stroke="#000"/><line x1="-335" x2="-280" y1="209" y2="333" stroke="#000"/><line x1="-281" x2="-280" y1="214" y2="333" stroke="#000"/><line x1="-405" x2="-280" y1="238" y2="333" stroke="#000"/><line x1="-411" x2="-256" y1="-967" y2="-950" stroke="#000"/><line x1="-335" x2="-256" y1="-915" y2="-950" stroke="#000"/><line x1="-321" x2="-256" y1="-872" y2="-950" stroke="#000"/><line x1="-251" x2="-256" y1="-868" y2="-950" stroke="#000"/><line x1="-366" x2="-227" y1="624" y2="702" stroke="#000"/><line x1="-428" x2="-227" y1="839" y2="702" stroke="#000"/><line x1="-260" x2="-227" y1="865" y2="702" stroke="#000"/><line x1="-366" x2="-259" y1="624" y2="511" stroke="#000"/><line x1="-227" x2="-259" y1="702" y2="511" stroke="#000"/><line x1="-335" x2="-217" y1="209" y2="263" stroke="#000"/><line x1="-281" x2="-217" y1="214" y2="263" stroke="#000"/><line x1="-405" x2="-217" y1="238" y2="263" stroke="#000"/><line x1="-280" x2="-217" y1="333" y2="263" stroke="#000"/><line x1="-359" x2="-220" y1="-42" y2="57" stroke="#000"/><line x1="-335" x2="-220" y1="209" y2="57" stroke="#000"/><line x1="-281" x2="-220" y1="214" y2="57" stroke="#000"/><line x1="-217" x2="-220" y1="263" y2="57" stroke="#000"/><line x1="-259" x2="-129" y1="511" y2="516" stroke="#000"/><line x1="-366" x2="-129" y1="624" y2="516" stroke="#000"/><line x1="-227" x2="-129" y1="702" y2="516" stroke="#000"/><line x1="-359" x2="-178" y1="-42" y2="-125" stroke="#000"/><line x1="-220" x2="-178" y1="57" y2="-125" stroke="#000"/><line x1="-248" x2="-168" y1="-466" y2="-386" stroke="#000"/><line x1="-168" x2="-95" y1="-386" y2="-428" stroke="#000"/><line x1="-248" x2="-95" y1="-466" y2="-428" stroke="#000"/><line x1="-227" x2="-139" y1="702" y2="723" stroke="#000"/><line x1="-260" x2="-139" y1="865" y2="723" stroke="#000"/><line x1="-248" x2="-69" y1="-466" y2="-679" stroke="#000"/><line x1="-178" x2="-91" y1="-125" y2="47" stroke="#000"/><line x1="-220" x2="-91" y1="57" y2="47" stroke="#000"/><line x1="-217" x2="-73" y1="263" y2="316" stroke="#000"/><line x1="-129" x2="-73" y1="516" y2="316" stroke="#000"/><line x1="-168" x2="-9" y1="-386" y2="-243" stroke="#000"/><line x1="-95" x2="-9" y1="-428" y2="-243" stroke="#000"/><line x1="-248" x2="-9" y1="-466" y2="-243" stroke="#000"/><line x1="-178" x2="-9" y1="-125" y2="-243" stroke="#000"/><line x1="-129" x2="-68" y1="516" y2="644" stroke="#000"/><line x1="-139" x2="-68" y1="723" y2="644" stroke="#000"/><line x1="-227" x2="-68" y1="702" y2="644" stroke="#000"/><line x1="-178" x2="-33" y1="-125" y2="74" stroke="#000"/><line x1="-91" x2="-33" y1="47" y2="74" stroke="#000"/><line x1="-129" x2="-13" y1="516" y2="675" stroke="#000"/><line x1="-68" x2="-13" y1="644" y2="675" stroke="#000"/><line x1="-139" x2="-13" y1="723" y2="675" stroke="#000"/><line x1="-33" x2="-10" y1="74" y2="282" stroke="#000"/><line x1="-73" x2="-10" y1="316" y2="282" stroke="#000"/><line x1="-129" x2="-10" y1="516" y2="282" stroke="#000"/><line x1="-95" x2="16" y1="-428" y2="-454" stroke="#000"/><line x1="-9" x2="16" y1="-243" y2="-454" stroke="#000"/><line x1="-73" x2="31" y1="316" y2="517" stroke="#000"/><line x1="-10" x2="31" y1="282" y2="517" stroke="#000"/><line x1="-129" x2="31" y1="516" y2="517" stroke="#000"/><line x1="-68" x2="31" y1="644" y2="517" stroke="#000"/><line x1="-13" x2="31" y1="675" y2="517" stroke="#000"/><line x1="-9" x2="66" y1="-243" y2="-23" stroke="#000"/><line x1="-91" x2="66" y1="47" y2="-23" stroke="#000"/><line x1="-33" x2="66" y1="74" y2="-23" stroke="#000"/><line x1="-10" x2="66" y1="282" y2="-23" stroke="#000"/><line x1="-129" x2="56" y1="516" y2="712" stroke="#000"/><line x1="31" x2="56" y1="517" y2="712" stroke="#000"/><line x1="-68" x2="56" y1="644" y2="712" stroke="#000"/><line x1="-13" x2="56" y1="675" y2="712" stroke="#000"/><line x1="-69" x2="121" y1="-679" y2="-526" stroke="#000"/><line x1="16" x2="121" y1="-454" y2="-526" stroke="#000"/><line x1="-95" x2="121" y1="-428" y2="-526" stroke="#000"/><line x1="-9" x2="121" y1="-243" y2="-526" stroke="#000"/><line x1="56" x2="92" y1="712" y2="942" stroke="#000"/><line x1="-129" x2="144" y1="516" y2="653" stroke="#000"/><line x1="31" x2="144" y1="517" y2="653" stroke="#000"/><line x1="-13" x2="144" y1="675" y2="653" stroke="#000"/><line x1="56" x2="144" y1="712" y2="653" stroke="#000"/><line x1="-9" x2="207" y1="-243" y2="-93" stroke="#000"/><line x1="66" x2="207" y1="-23" y2="-93" stroke="#000"/><line x1="207" x2="272" y1="-93" y2="35" stroke="#000"/><line x1="66" x2="272" y1="-23" y2="35" stroke="#000"/><line x1="207" x2="298" y1="-93" y2="-95" stroke="#000"/><line x1="272" x2="298" y1="35" y2="-95" stroke="#000"/><line x1="121" x2="337" y1="-526" y2="-502" stroke="#000"/><line x1="144" x2="316" y1="653" y2="584" stroke="#000"/><line x1="316" x2="373" y1="584" y2="698" stroke="#000"/><line x1="316" x2="504" y1="584" y2="575" stroke="#000"/><line x1="373" x2="504" y1="698" y2="575" stroke="#000"/><line x1="373" x2="479" y1="698" y2="873" stroke="#000"/><line x1="504" x2="479" y1="575" y2="873" stroke="#000"/><line x1="482" x2="479" y1="973" y2="873" stroke="#000"/><line x1="373" x2="531" y1="698" y2="737" stroke="#000"/><line x1="504" x2="531" y1="575" y2="737" stroke="#000"/><line x1="479" x2="531" y1="873" y2="737" stroke="#000"/><line x1="504" x2="517" y1="575" y2="236" stroke="#000"/><line x1="337" x2="557" y1="-502" y2="-562" stroke="#000"/><line x1="531" x2="537" y1="737" y2="894" stroke="#000"/><line x1="479" x2="537" y1="873" y2="894" stroke="#000"/><line x1="482" x2="537" y1="973" y2="894" stroke="#000"/><line x1="557" x2="559" y1="-562" y2="-324" stroke="#000"/><line x1="337" x2="559" y1="-502" y2="-324" stroke="#000"/><line x1="479" x2="541" y1="873" y2="958" stroke="#000"/><line x1="537" x2="541" y1="894" y2="958" stroke="#000"/><line x1="482" x2="541" y1="973" y2="958" stroke="#000"/><line x1="517" x2="586" y1="236" y2="-2" stroke="#000"/><line x1="517" x2="622" y1="236" y2="525" stroke="#000"/><line x1="504" x2="622" y1="575" y2="525" stroke="#000"/><line x1="531" x2="622" y1="737" y2="525" stroke="#000"/><line x1="586" x2="626" y1="-2" y2="199" stroke="#000"/><line x1="517" x2="626" y1="236" y2="199" stroke="#000"/><line x1="622" x2="604" y1="525" y2="746" stroke="#000"/><line x1="504" x2="604" y1="575" y2="746" stroke="#000"/><line x1="531" x2="604" y1="737" y2="746" stroke="#000"/><line x1="479" x2="604" y1="873" y2="746" stroke="#000"/><line x1="537" x2="604" y1="894" y2="746" stroke="#000"/><line x1="622" x2="649" y1="525" y2="770" stroke="#000"/><line x1="504" x2="649" y1="575" y2="770" stroke="#000"/><line x1="531" x2="649" y1="737" y2="770" stroke="#000"/><line x1="604" x2="649" y1="746" y2="770" stroke="#000"/><line x1="479" x2="649" y1="873" y2="770" stroke="#000"/><line x1="537" x2="649" y1="894" y2="770" stroke="#000"/><line x1="557" x2="664" y1="-562" y2="-601" stroke="#000"/><line x1="557" x2="665" y1="-562" y2="-341" stroke="#000"/><line x1="559" x2="665" y1="-324" y2="-341" stroke="#000"/><line x1="622" x2="771" y1="525" y2="458" stroke="#000"/><line x1="664" x2="751" y1="-601" y2="-514" stroke="#000"/><line x1="557" x2="751" y1="-562" y2="-514" stroke="#000"/><line x1="771" x2="806" y1="458" y2="601" stroke="#000"/><line x1="622" x2="806" y1="525" y2="601" stroke="#000"/><line x1="649" x2="806" y1="770" y2="601" stroke="#000"/><line x1="664" x2="776" y1="-601" y2="-477" stroke="#000"/><line x1="751" x2="776" y1="-514" y2="-477" stroke="#000"/><line x1="665" x2="776" y1="-341" y2="-477" stroke="#000"/><line x1="771" x2="883" y1="458" y2="574" stroke="#000"/><line x1="806" x2="883" y1="601" y2="574" stroke="#000"/></g></svg>