<?xml version="1.0" standalone="no"?>
<!DOCTYPE svg PUBLIC "-//W3C/DTD SVG 1.1//EN"
  "http://www.w3.org/Graphics/SVG/1.1/DTD/svg11.dtd">
<svg width="500px" height="500px" viewBox="0 0 2000 2000"
  xmlns="http://www.w3.org/2000/svg" version="1.1">
  <desc>Generate from recti package</desc>
  <g transform="translate(1000,1000)">
<rect x="-877" y="587" width="54" height="201" style="fill:cyan;stroke:black"/>
<rect x="-850" y="816" width="61" height="21" style="fill:cyan;stroke:black"/>
<rect x="-789" y="822" width="15" height="15" style="fill:cyan;stroke:black"/>
<rect x="-774" y="822" width="82" height="142" style="fill:cyan;stroke:black"/>
<rect x="-772" y="-106" width="49" height="75" style="fill:cyan;stroke:black"/>
<rect x="-760" y="156" width="38" height="73" style="fill:cyan;stroke:black"/>
<rect x="-594" y="923" width="206" height="64" style="fill:cyan;stroke:black"/>
<rect x="-84" y="596" width="32" height="97" style="fill:cyan;stroke:black"/>
<rect x="-47" y="596" width="68" height="159" style="fill:cyan;stroke:black"/>
<rect x="21" y="596" width="70" height="233" style="fill:cyan;stroke:black"/>
<rect x="91" y="596" width="107" height="115" style="fill:cyan;stroke:black"/>
<rect x="-388" y="923" width="16" height="12" style="fill:cyan;stroke:black"/>
<rect x="-516" y="776" width="176" height="126" style="fill:cyan;stroke:black"/>
<rect x="-340" y="829" width="159" height="73" style="fill:cyan;stroke:black"/>
<rect x="-516" y="584" width="67" height="188" style="fill:cyan;stroke:black"/>
<rect x="-449" y="477" width="165" height="295" style="fill:cyan;stroke:black"/>
<rect x="-284" y="632" width="113" height="140" style="fill:cyan;stroke:black"/>
<rect x="-153" y="690" width="28" height="67" style="fill:cyan;stroke:black"/>
<rect x="-284" y="477" width="49" height="69" style="fill:cyan;stroke:black"/>
<rect x="-235" y="477" width="212" height="78" style="fill:cyan;stroke:black"/>
<rect x="-103" y="265" width="59" height="102" style="fill:cyan;stroke:black"/>
<rect x="-44" y="197" width="68" height="170" style="fill:cyan;stroke:black"/>
<rect x="-23" y="479" width="109" height="76" style="fill:cyan;stroke:black"/>
<rect x="-645" y="252" width="54" height="127" style="fill:cyan;stroke:black"/>
<rect x="-641" y="-320" width="5" height="16" style="fill:cyan;stroke:black"/>
<rect x="-636" y="-405" width="92" height="101" style="fill:cyan;stroke:black"/>
<rect x="-591" y="252" width="37" height="94" style="fill:cyan;stroke:black"/>
<rect x="-447" y="185" width="83" height="107" style="fill:cyan;stroke:black"/>
<rect x="-364" y="185" width="57" height="48" style="fill:cyan;stroke:black"/>
<rect x="-307" y="185" width="52" height="58" style="fill:cyan;stroke:black"/>
<rect x="-305" y="326" width="50" height="15" style="fill:cyan;stroke:black"/>
<rect x="-255" y="185" width="76" height="156" style="fill:cyan;stroke:black"/>
<rect x="-242" y="39" width="44" height="36" style="fill:cyan;stroke:black"/>
<rect x="-119" y="39" width="56" height="17" style="fill:cyan;stroke:black"/>
<rect x="-94" y="-284" width="169" height="81" style="fill:cyan;stroke:black"/>
<rect x="-55" y="39" width="44" height="70" style="fill:cyan;stroke:black"/>
<rect x="-11" y="-155" width="155" height="264" style="fill:cyan;stroke:black"/>
<rect x="144" y="-155" width="126" height="124" style="fill:cyan;stroke:black"/>
<rect x="219" y="-25" width="107" height="120" style="fill:cyan;stroke:black"/>
<rect x="270" y="-159" width="56" height="128" style="fill:cyan;stroke:black"/>
<rect x="279" y="-639" width="116" height="273" style="fill:cyan;stroke:black"/>
<rect x="478" y="111" width="78" height="251" style="fill:cyan;stroke:black"/>
<rect x="497" y="-371" width="125" height="93" style="fill:cyan;stroke:black"/>
<rect x="550" y="-39" width="72" height="74" style="fill:cyan;stroke:black"/>
<rect x="560" y="111" width="132" height="176" style="fill:cyan;stroke:black"/>
<rect x="656" y="-371" width="19" height="60" style="fill:cyan;stroke:black"/>
<rect x="485" y="-639" width="145" height="153" style="fill:cyan;stroke:black"/>
<rect x="630" y="-639" width="69" height="75" style="fill:cyan;stroke:black"/>
<rect x="742" y="-525" width="19" height="21" style="fill:cyan;stroke:black"/>
<rect x="761" y="-525" width="31" height="95" style="fill:cyan;stroke:black"/>
<rect x="-503" y="-647" width="36" height="95" style="fill:cyan;stroke:black"/>
<rect x="-429" y="-80" width="140" height="76" style="fill:cyan;stroke:black"/>
<rect x="-213" y="-175" width="69" height="99" style="fill:cyan;stroke:black"/>
<rect x="-435" y="-647" width="66" height="211" style="fill:cyan;stroke:black"/>
<rect x="-429" y="-405" width="52" height="137" style="fill:cyan;stroke:black"/>
<rect x="-313" y="-610" width="130" height="287" style="fill:cyan;stroke:black"/>
<rect x="-179" y="-422" width="22" height="72" style="fill:cyan;stroke:black"/>
<rect x="-157" y="-507" width="124" height="157" style="fill:cyan;stroke:black"/>
<rect x="-131" y="-695" width="124" height="31" style="fill:cyan;stroke:black"/>
<rect x="-33" y="-507" width="99" height="106" style="fill:cyan;stroke:black"/>
<rect x="66" y="-651" width="110" height="250" style="fill:cyan;stroke:black"/>
<rect x="-335" y="-883" width="27" height="21" style="fill:cyan;stroke:black"/>
<rect x="-308" y="-883" width="114" height="29" style="fill:cyan;stroke:black"/>
<rect x="-832" y="194" width="62" height="16" style="fill:cyan;stroke:black"/>
<rect x="-942" y="-992" width="34" height="128" style="fill:cyan;stroke:black"/>
<rect x="-927" y="-809" width="58" height="164" style="fill:cyan;stroke:black"/>
<rect x="-903" y="-992" width="59" height="17" style="fill:cyan;stroke:black"/>
<rect x="-869" y="-814" width="121" height="169" style="fill:cyan;stroke:black"/>
<rect x="-868" y="-601" width="115" height="120" style="fill:cyan;stroke:black"/>
<rect x="-844" y="-999" width="51" height="24" style="fill:cyan;stroke:black"/>
<rect x="-793" y="-999" width="236" height="66" style="fill:cyan;stroke:black"/>
<rect x="-741" y="-814" width="136" height="285" style="fill:cyan;stroke:black"/>
<rect x="-605" y="-814" width="48" height="180" style="fill:cyan;stroke:black"/>
<rect x="-537" y="-999" width="252" height="63" style="fill:cyan;stroke:black"/>
<rect x="-385" y="-930" width="100" height="29" style="fill:cyan;stroke:black"/>
<rect x="-285" y="-999" width="57" height="98" style="fill:cyan;stroke:black"/>
<rect x="77" y="923" width="31" height="38" style="fill:cyan;stroke:black"/>
<rect x="204" y="-999" width="98" height="97" style="fill:cyan;stroke:black"/>
<rect x="292" y="497" width="49" height="174" style="fill:cyan;stroke:black"/>
<rect x="364" y="678" width="18" height="40" style="fill:cyan;stroke:black"/>
<rect x="460" y="956" width="45" height="34" style="fill:cyan;stroke:black"/>
<rect x="505" y="926" width="72" height="64" style="fill:cyan;stroke:black"/>
<rect x="844" y="921" width="89" height="49" style="fill:cyan;stroke:black"/>
<rect x="452" y="433" width="104" height="285" style="fill:cyan;stroke:black"/>
<rect x="467" y="828" width="24" height="90" style="fill:cyan;stroke:black"/>
<rect x="491" y="871" width="93" height="47" style="fill:cyan;stroke:black"/>
<rect x="467" y="720" width="128" height="35" style="fill:cyan;stroke:black"/>
<rect x="556" y="433" width="133" height="185" style="fill:cyan;stroke:black"/>
<rect x="598" y="737" width="12" height="18" style="fill:cyan;stroke:black"/>
<rect x="610" y="737" width="79" height="67" style="fill:cyan;stroke:black"/>
<rect x="753" y="502" width="106" height="199" style="fill:cyan;stroke:black"/>
<rect x="859" y="502" width="49" height="145" style="fill:cyan;stroke:black"/>
<rect x="741" y="433" width="60" height="50" style="fill:cyan;stroke:black"/>
<line x1="-925" y1="-928" x2="-898" y2="-727" style="stroke:black"/>
<line x1="-925" y1="-928" x2="-873" y2="-983" style="stroke:black"/>
<line x1="-925" y1="-928" x2="-808" y2="-729" style="stroke:black"/>
<line x1="-898" y1="-727" x2="-808" y2="-729" style="stroke:black"/>
<line x1="-898" y1="-727" x2="-810" y2="-541" style="stroke:black"/>
<line x1="-808" y1="-729" x2="-810" y2="-541" style="stroke:black"/>
<line x1="-850" y1="687" x2="-819" y2="826" style="stroke:black"/>
<line x1="-873" y1="-983" x2="-818" y2="-987" style="stroke:black"/>
<line x1="-925" y1="-928" x2="-818" y2="-987" style="stroke:black"/>
<line x1="-873" y1="-983" x2="-675" y2="-966" style="stroke:black"/>
<line x1="-818" y1="-987" x2="-675" y2="-966" style="stroke:black"/>
<line x1="-925" y1="-928" x2="-675" y2="-966" style="stroke:black"/>
<line x1="-808" y1="-729" x2="-675" y2="-966" style="stroke:black"/>
<line x1="-850" y1="687" x2="-781" y2="829" style="stroke:black"/>
<line x1="-819" y1="826" x2="-781" y2="829" style="stroke:black"/>
<line x1="-850" y1="687" x2="-733" y2="893" style="stroke:black"/>
<line x1="-819" y1="826" x2="-733" y2="893" style="stroke:black"/>
<line x1="-781" y1="829" x2="-733" y2="893" style="stroke:black"/>
<line x1="-801" y1="202" x2="-741" y2="192" style="stroke:black"/>
<line x1="-675" y1="-966" x2="-673" y2="-671" style="stroke:black"/>
<line x1="-808" y1="-729" x2="-673" y2="-671" style="stroke:black"/>
<line x1="-810" y1="-541" x2="-673" y2="-671" style="stroke:black"/>
<line x1="-741" y1="192" x2="-618" y2="315" style="stroke:black"/>
<line x1="-810" y1="-541" x2="-590" y2="-354" style="stroke:black"/>
<line x1="-638" y1="-312" x2="-590" y2="-354" style="stroke:black"/>
<line x1="-675" y1="-966" x2="-581" y2="-724" style="stroke:black"/>
<line x1="-673" y1="-671" x2="-581" y2="-724" style="stroke:black"/>
<line x1="-733" y1="893" x2="-491" y2="955" style="stroke:black"/>
<line x1="-618" y1="315" x2="-572" y2="299" style="stroke:black"/>
<line x1="-675" y1="-966" x2="-411" y2="-967" style="stroke:black"/>
<line x1="-491" y1="955" x2="-428" y2="839" style="stroke:black"/>
<line x1="-428" y1="839" x2="-482" y2="678" style="stroke:black"/>
<line x1="-581" y1="-724" x2="-485" y2="-599" style="stroke:black"/>
<line x1="-673" y1="-671" x2="-485" y2="-599" style="stroke:black"/>
<line x1="-482" y1="678" x2="-366" y2="624" style="stroke:black"/>
<line x1="-428" y1="839" x2="-366" y2="624" style="stroke:black"/>
<line x1="-572" y1="299" x2="-405" y2="238" style="stroke:black"/>
<line x1="-485" y1="-599" x2="-402" y2="-541" style="stroke:black"/>
<line x1="-590" y1="-354" x2="-402" y2="-541" style="stroke:black"/>
<line x1="-402" y1="-541" x2="-403" y2="-336" style="stroke:black"/>
<line x1="-590" y1="-354" x2="-403" y2="-336" style="stroke:black"/>
<line x1="-428" y1="839" x2="-380" y2="929" style="stroke:black"/>
<line x1="-491" y1="955" x2="-380" y2="929" style="stroke:black"/>
<line x1="-411" y1="-967" x2="-335" y2="-915" style="stroke:black"/>
<line x1="-405" y1="238" x2="-335" y2="209" style="stroke:black"/>
<line x1="-482" y1="678" x2="-260" y2="865" style="stroke:black"/>
<line x1="-366" y1="624" x2="-260" y2="865" style="stroke:black"/>
<line x1="-428" y1="839" x2="-260" y2="865" style="stroke:black"/>
<line x1="-380" y1="929" x2="-260" y2="865" style="stroke:black"/>
<line x1="-491" y1="955" x2="-260" y2="865" style="stroke:black"/>
<line x1="-411" y1="-967" x2="-321" y2="-872" style="stroke:black"/>
<line x1="-335" y1="-915" x2="-321" y2="-872" style="stroke:black"/>
<line x1="-402" y1="-541" x2="-248" y2="-466" style="stroke:black"/>
<line x1="-403" y1="-336" x2="-248" y2="-466" style="stroke:black"/>
<line x1="-411" y1="-967" x2="-251" y2="-868" style="stroke:black"/>
<line x1="-335" y1="-915" x2="-251" y2="-868" style="stroke:black"/>
<line x1="-321" y1="-872" x2="-251" y2="-868" style="stroke:black"/>
<line x1="-335" y1="209" x2="-281" y2="214" style="stroke:black"/>
<line x1="-405" y1="238" x2="-281" y2="214" style="stroke:black"/>
<line x1="-335" y1="209" x2="-280" y2="333" style="stroke:black"/>
<line x1="-281" y1="214" x2="-280" y2="333" style="stroke:black"/>
<line x1="-405" y1="238" x2="-280" y2="333" style="stroke:black"/>
<line x1="-411" y1="-967" x2="-256" y2="-950" style="stroke:black"/>
<line x1="-335" y1="-915" x2="-256" y2="-950" style="stroke:black"/>
<line x1="-321" y1="-872" x2="-256" y2="-950" style="stroke:black"/>
<line x1="-251" y1="-868" x2="-256" y2="-950" style="stroke:black"/>
<line x1="-366" y1="624" x2="-227" y2="702" style="stroke:black"/>
<line x1="-428" y1="839" x2="-227" y2="702" style="stroke:black"/>
<line x1="-260" y1="865" x2="-227" y2="702" style="stroke:black"/>
<line x1="-366" y1="624" x2="-259" y2="511" style="stroke:black"/>
<line x1="-227" y1="702" x2="-259" y2="511" style="stroke:black"/>
<line x1="-335" y1="209" x2="-217" y2="263" style="stroke:black"/>
<line x1="-281" y1="214" x2="-217" y2="263" style="stroke:black"/>
<line x1="-405" y1="238" x2="-217" y2="263" style="stroke:black"/>
<line x1="-280" y1="333" x2="-217" y2="263" style="stroke:black"/>
<line x1="-359" y1="-42" x2="-220" y2="57" style="stroke:black"/>
<line x1="-335" y1="209" x2="-220" y2="57" style="stroke:black"/>
<line x1="-281" y1="214" x2="-220" y2="57" style="stroke:black"/>
<line x1="-217" y1="263" x2="-220" y2="57" style="stroke:black"/>
<line x1="-259" y1="511" x2="-129" y2="516" style="stroke:black"/>
<line x1="-366" y1="624" x2="-129" y2="516" style="stroke:black"/>
<line x1="-227" y1="702" x2="-129" y2="516" style="stroke:black"/>
<line x1="-359" y1="-42" x2="-178" y2="-125" style="stroke:black"/>
<line x1="-220" y1="57" x2="-178" y2="-125" style="stroke:black"/>
<line x1="-248" y1="-466" x2="-168" y2="-386" style="stroke:black"/>
<line x1="-168" y1="-386" x2="-95" y2="-428" style="stroke:black"/>
<line x1="-248" y1="-466" x2="-95" y2="-428" style="stroke:black"/>
<line x1="-227" y1="702" x2="-139" y2="723" style="stroke:black"/>
<line x1="-260" y1="865" x2="-139" y2="723" style="stroke:black"/>
<line x1="-248" y1="-466" x2="-69" y2="-679" style="stroke:black"/>
<line x1="-178" y1="-125" x2="-91" y2="47" style="stroke:black"/>
<line x1="-220" y1="57" x2="-91" y2="47" style="stroke:black"/>
<line x1="-217" y1="263" x2="-73" y2="316" style="stroke:black"/>
<line x1="-129" y1="516" x2="-73" y2="316" style="stroke:black"/>
<line x1="-168" y1="-386" x2="-9" y2="-243" style="stroke:black"/>
<line x1="-95" y1="-428" x2="-9" y2="-243" style="stroke:black"/>
<line x1="-248" y1="-466" x2="-9" y2="-243" style="stroke:black"/>
<line x1="-178" y1="-125" x2="-9" y2="-243" style="stroke:black"/>
<line x1="-129" y1="516" x2="-68" y2="644" style="stroke:black"/>
<line x1="-139" y1="723" x2="-68" y2="644" style="stroke:black"/>
<line x1="-227" y1="702" x2="-68" y2="644" style="stroke:black"/>
<line x1="-178" y1="-125" x2="-33" y2="74" style="stroke:black"/>
<line x1="-91" y1="47" x2="-33" y2="74" style="stroke:black"/>
<line x1="-129" y1="516" x2="-13" y2="675" style="stroke:black"/>
<line x1="-68" y1="644" x2="-13" y2="675" style="stroke:black"/>
<line x1="-139" y1="723" x2="-13" y2="675" style="stroke:black"/>
<line x1="-33" y1="74" x2="-10" y2="282" style="stroke:black"/>
<line x1="-73" y1="316" x2="-10" y2="282" style="stroke:black"/>
<line x1="-129" y1="516" x2="-10" y2="282" style="stroke:black"/>
<line x1="-95" y1="-428" x2="16" y2="-454" style="stroke:black"/>
<line x1="-9" y1="-243" x2="16" y2="-454" style="stroke:black"/>
<line x1="-73" y1="316" x2="31" y2="517" style="stroke:black"/>
<line x1="-10" y1="282" x2="31" y2="517" style="stroke:black"/>
<line x1="-129" y1="516" x2="31" y2="517" style="stroke:black"/>
<line x1="-68" y1="644" x2="31" y2="517" style="stroke:black"/>
<line x1="-13" y1="675" x2="31" y2="517" style="stroke:black"/>
<line x1="-9" y1="-243" x2="66" y2="-23" style="stroke:black"/>
<line x1="-91" y1="47" x2="66" y2="-23" style="stroke:black"/>
<line x1="-33" y1="74" x2="66" y2="-23" style="stroke:black"/>
<line x1="-10" y1="282" x2="66" y2="-23" style="stroke:black"/>
<line x1="-129" y1="516" x2="56" y2="712" style="stroke:black"/>
<line x1="31" y1="517" x2="56" y2="712" style="stroke:black"/>
<line x1="-68" y1="644" x2="56" y2="712" style="stroke:black"/>
<line x1="-13" y1="675" x2="56" y2="712" style="stroke:black"/>
<line x1="-69" y1="-679" x2="121" y2="-526" style="stroke:black"/>
<line x1="16" y1="-454" x2="121" y2="-526" style="stroke:black"/>
<line x1="-95" y1="-428" x2="121" y2="-526" style="stroke:black"/>
<line x1="-9" y1="-243" x2="121" y2="-526" style="stroke:black"/>
<line x1="56" y1="712" x2="92" y2="942" style="stroke:black"/>
<line x1="-129" y1="516" x2="144" y2="653" style="stroke:black"/>
<line x1="31" y1="517" x2="144" y2="653" style="stroke:black"/>
<line x1="-13" y1="675" x2="144" y2="653" style="stroke:black"/>
<line x1="56" y1="712" x2="144" y2="653" style="stroke:black"/>
<line x1="-9" y1="-243" x2="207" y2="-93" style="stroke:black"/>
<line x1="66" y1="-23" x2="207" y2="-93" style="stroke:black"/>
<line x1="207" y1="-93" x2="272" y2="35" style="stroke:black"/>
<line x1="66" y1="-23" x2="272" y2="35" style="stroke:black"/>
<line x1="207" y1="-93" x2="298" y2="-95" style="stroke:black"/>
<line x1="272" y1="35" x2="298" y2="-95" style="stroke:black"/>
<line x1="121" y1="-526" x2="337" y2="-502" style="stroke:black"/>
<line x1="144" y1="653" x2="316" y2="584" style="stroke:black"/>
<line x1="316" y1="584" x2="373" y2="698" style="stroke:black"/>
<line x1="316" y1="584" x2="504" y2="575" style="stroke:black"/>
<line x1="373" y1="698" x2="504" y2="575" style="stroke:black"/>
<line x1="373" y1="698" x2="479" y2="873" style="stroke:black"/>
<line x1="504" y1="575" x2="479" y2="873" style="stroke:black"/>
<line x1="482" y1="973" x2="479" y2="873" style="stroke:black"/>
<line x1="373" y1="698" x2="531" y2="737" style="stroke:black"/>
<line x1="504" y1="575" x2="531" y2="737" style="stroke:black"/>
<line x1="479" y1="873" x2="531" y2="737" style="stroke:black"/>
<line x1="504" y1="575" x2="517" y2="236" style="stroke:black"/>
<line x1="337" y1="-502" x2="557" y2="-562" style="stroke:black"/>
<line x1="531" y1="737" x2="537" y2="894" style="stroke:black"/>
<line x1="479" y1="873" x2="537" y2="894" style="stroke:black"/>
<line x1="482" y1="973" x2="537" y2="894" style="stroke:black"/>
<line x1="557" y1="-562" x2="559" y2="-324" style="stroke:black"/>
<line x1="337" y1="-502" x2="559" y2="-324" style="stroke:black"/>
<line x1="479" y1="873" x2="541" y2="958" style="stroke:black"/>
<line x1="537" y1="894" x2="541" y2="958" style="stroke:black"/>
<line x1="482" y1="973" x2="541" y2="958" style="stroke:black"/>
<line x1="517" y1="236" x2="586" y2="-2" style="stroke:black"/>
<line x1="517" y1="236" x2="622" y2="525" style="stroke:black"/>
<line x1="504" y1="575" x2="622" y2="525" style="stroke:black"/>
<line x1="531" y1="737" x2="622" y2="525" style="stroke:black"/>
<line x1="586" y1="-2" x2="626" y2="199" style="stroke:black"/>
<line x1="517" y1="236" x2="626" y2="199" style="stroke:black"/>
<line x1="622" y1="525" x2="604" y2="746" style="stroke:black"/>
<line x1="504" y1="575" x2="604" y2="746" style="stroke:black"/>
<line x1="531" y1="737" x2="604" y2="746" style="stroke:black"/>
<line x1="479" y1="873" x2="604" y2="746" style="stroke:black"/>
<line x1="537" y1="894" x2="604" y2="746" style="stroke:black"/>
<line x1="622" y1="525" x2="649" y2="770" style="stroke:black"/>
<line x1="504" y1="575" x2="649" y2="770" style="stroke:black"/>
<line x1="531" y1="737" x2="649" y2="770" style="stroke:black"/>
<line x1="604" y1="746" x2="649" y2="770" style="stroke:black"/>
<line x1="479" y1="873" x2="649" y2="770" style="stroke:black"/>
<line x1="537" y1="894" x2="649" y2="770" style="stroke:black"/>
<line x1="557" y1="-562" x2="664" y2="-601" style="stroke:black"/>
<line x1="557" y1="-562" x2="665" y2="-341" style="stroke:black"/>
<line x1="559" y1="-324" x2="665" y2="-341" style="stroke:black"/>
<line x1="622" y1="525" x2="771" y2="458" style="stroke:black"/>
<line x1="664" y1="-601" x2="751" y2="-514" style="stroke:black"/>
<line x1="557" y1="-562" x2="751" y2="-514" style="stroke:black"/>
<line x1="771" y1="458" x2="806" y2="601" style="stroke:black"/>
<line x1="622" y1="525" x2="806" y2="601" style="stroke:black"/>
<line x1="649" y1="770" x2="806" y2="601" style="stroke:black"/>
<line x1="664" y1="-601" x2="776" y2="-477" style="stroke:black"/>
<line x1="751" y1="-514" x2="776" y2="-477" style="stroke:black"/>
<line x1="665" y1="-341" x2="776" y2="-477" style="stroke:black"/>
<line x1="771" y1="458" x2="883" y2="574" style="stroke:black"/>
<line x1="806" y1="601" x2="883" y2="574" style="stroke:black"/>
  </g>
</svg>
