<svg xmlns="http://www.w3.org/2000/svg" width="100%" height="100%" version="1.1" viewBox="-100 -100 2200 2200"><desc>Generate from recti package</desc><g transform="translate(1000,1000)"><polygon fill="#0ff" fill-opacity=".5" stroke="#000" points="-916 83 -916 -167 -903 -167 -903 -932 -784 -932 -784 -939 242 -939 242 -902 911 -902 911 -889 938 -889 938 -445 1032 -445 1032 -512 1036 -512 1036 -933 904 -933 904 -466 888 -466 888 158 871 158 871 424 872 424 872 587 799 587 799 641 693 641 693 744 670 744 670 695 407 695 407 888 431 888 431 931 754 931 754 821 524 821 524 858 394 858 394 1016 565 1016 565 986 854 986 854 746 842 746 842 739 784 739 784 981 993 981 993 501 891 501 891 684 882 684 882 910 778 910 778 911 517 911 517 930 400 930 400 931 169 931 169 1038 466 1038 466 901 137 901 137 983 168 983 168 956 457 956 457 780 655 780 655 714 538 714 538 797 749 797 749 558 496 558 496 658 326 658 326 774 424 774 424 738 442 738 442 611 345 611 345 639 352 639 352 557 401 557 401 373 415 373 415 72 312 72 312 161 392 161 392 493 801 493 801 423 681 423 681 562 968 562 968 482 975 482 975 172 963 172 963 269 965 269 965 102 885 102 885 25 836 25 836 -102 928 -102 928 -832 806 -832 806 -713 916 -713 916 -979 255 -979 255 -854 438 -854 438 -962 264 -962 264 -1013 -288 -1013 -288 -849 81 -849 81 -961 -385 -961 -385 -870 -225 -870 -225 -996 -597 -996 -597 -694 -665 -694 -665 -589 -801 -589 -801 -541 -808 -541 -808 -541 -693 -541 -693 -548 -688 -548 -688 -705 -867 -705 -867 -749 -809 -749 -809 -754 -497 -754 -497 -993 -733 -993 -733 -1035 -963 -1035 -963 -1011 -968 -1011 -968 -924 -1002 -924 -1002 -454 -946 -454 -946 254 -770 254 -770 150 -892 150 -892 537 -795 537 -795 313 -937 313 -937 647 -678 647 -678 433 -774 433 -774 571 -648 571 -648 233 -662 233 -662 169 -700 169 -700 156 -764 156 -764 312 -494 312 -494 75 -620 75 -620 -91 -747 -91 -747 -234 -832 -234 -832 -46 -663 -46 -663 -273 -645 -273 -645 -66 -621 -66 -621 -26 -484 -26 -484 -364 -581 -364 -581 -260 -576 -260 -576 -345 -300 -345 -300 -496 -495 -496 -495 -427 -379 -427 -379 -546 -407 -546 -407 -612 -503 -612 -503 -587 -309 -587 -309 -605 -283 -605 -283 -823 -194 -823 -194 -914 -248 -914 -248 -922 -395 -922 -395 -550 -239 -550 -239 -362 -97 -362 -97 -447 126 -447 126 -591 236 -591 236 -808 -52 -808 -52 -724 -131 -724 -131 -635 53 -635 53 -790 -9 -790 -9 -720 237 -720 237 -787 581 -787 581 -841 127 -841 127 -659 116 -659 116 -461 -93 -461 -93 -410 -243 -410 -243 -383 -253 -383 -253 -439 -413 -439 -413 -419 -419 -419 -419 -353 -437 -353 -437 -328 -489 -328 -489 -20 -153 -20 -153 -175 -204 -175 -204 -136 -349 -136 -349 -64 -563 -64 -563 386 -195 386 -195 183 -363 183 -363 296 -247 296 -247 173 -424 173 -424 292 -387 292 -387 245 -119 245 -119 120 -138 120 -138 15 -242 15 -242 99 49 99 49 -95 330 -95 330 -99 396 -99 396 -318 15 -318 15 -263 -94 -263 -94 -224 455 -224 455 -426 339 -426 339 -445 305 -445 305 -579 759 -579 759 -659 682 -659 682 -465 732 -465 732 -430 821 -430 821 -564 773 -564 773 -634 643 -634 643 -624 570 -624 570 -546 425 -546 425 -464 536 -464 536 -558 382 -558 382 -258 503 -258 503 -337 398 -337 398 -188 520 -188 520 -311 615 -311 615 -371 596 -371 596 -148 636 -148 636 227 500 227 500 282 496 282 496 302 418 302 418 410 531 410 531 171 752 171 752 -25 593 -25 593 -138 490 -138 490 21 682 21 682 -338 437 -338 437 -157 409 -157 409 -4 289 -4 289 35 279 35 279 28 210 28 210 35 386 35 386 -91 84 -91 84 49 -115 49 -115 210 -3 210 -3 -4 -179 -4 -179 135 -194 135 -194 181 -198 181 -198 281 -365 281 -365 286 -651 286 -651 319 -705 319 -705 441 -401 441 -401 366 -695 366 -695 879 -560 879 -560 775 -528 775 -528 644 -389 644 -389 537 -83 537 -83 539 146 539 146 339 23 339 23 440 117 440 117 307 -163 307 -163 446 -57 446 -57 325 16 325 16 257 84 257 84 189 186 189 186 188 213 188 213 207 185 207 185 269 165 269 165 495 -175 495 -175 486 -344 486 -344 692 -229 692 -229 750 -185 750 -185 697 -213 697 -213 840 -111 840 -111 712 -576 712 -576 836 -400 836 -400 889 -181 889 -181 842 -533 842 -533 774 -654 774 -654 983 -432 983 -432 994 -237 994 -237 875 -448 875 -448 1034 -49 1034 -49 951 -26 951 -26 947 -17 947 -17 899 8 899 8 633 -84 633 -84 656 138 656 138 714 206 714 206 651 31 651 31 878 277 878 277 782 238 782 238 769 81 769 81 695 -107 695 -107 927 -601 927 -601 904 -714 904 -714 777 -850 777 -850 876 -849 876 -849 882 -632 882 -632 528 -883 528 -883 736 -877 736 -877 728 -982 728 -982 872 -912 872 -912 707 -886 707 -886 387 -903 387 -903 426 -870 426 -870 346 -827 346 -827 -404 -949 -404 -949 83"/><polygon fill="#00f" fill-opacity="1" stroke="#000" points="-976 83 -976 -227 -963 -227 -963 -992 -844 -992 -844 -999 302 -999 302 -962 971 -962 971 -949 998 -949 998 -445 972 -445 972 -572 976 -572 976 -873 964 -873 964 -406 948 -406 948 218 931 218 931 364 932 364 932 647 859 647 859 701 753 701 753 804 610 804 610 755 467 755 467 828 491 828 491 871 754 871 754 881 584 881 584 918 454 918 454 956 505 956 505 926 794 926 794 806 782 806 782 739 844 739 844 921 933 921 933 501 951 501 951 744 942 744 942 970 838 970 838 971 577 971 577 990 460 990 460 991 169 991 169 978 406 978 406 961 77 961 77 923 108 923 108 896 397 896 397 720 595 720 595 714 598 714 598 737 689 737 689 618 556 618 556 718 326 718 326 714 364 714 364 678 382 678 382 671 285 671 285 579 292 579 292 497 341 497 341 313 355 313 355 72 372 72 372 101 452 101 452 433 801 433 801 483 741 483 741 502 908 502 908 422 915 422 915 232 903 232 903 209 905 209 905 162 825 162 825 85 776 85 776 -162 868 -162 868 -772 866 -772 866 -713 856 -713 856 -919 315 -919 315 -914 438 -914 438 -902 204 -902 204 -953 -228 -953 -228 -909 81 -909 81 -901 -385 -901 -385 -930 -285 -930 -285 -936 -537 -936 -537 -634 -605 -634 -605 -529 -741 -529 -741 -481 -868 -481 -868 -601 -753 -601 -753 -608 -748 -608 -748 -645 -927 -645 -927 -809 -869 -809 -869 -814 -557 -814 -557 -933 -793 -933 -793 -975 -903 -975 -903 -951 -908 -951 -908 -864 -942 -864 -942 -514 -886 -514 -886 194 -770 194 -770 210 -832 210 -832 537 -855 537 -855 373 -877 373 -877 587 -738 587 -738 433 -714 433 -714 511 -708 511 -708 293 -722 293 -722 229 -760 229 -760 156 -704 156 -704 252 -554 252 -554 135 -680 135 -680 -31 -807 -31 -807 -234 -772 -234 -772 -106 -723 -106 -723 -273 -585 -273 -585 -126 -561 -126 -561 -86 -544 -86 -544 -304 -641 -304 -641 -320 -636 -320 -636 -405 -360 -405 -360 -436 -435 -436 -435 -427 -439 -427 -439 -486 -467 -486 -467 -552 -503 -552 -503 -647 -369 -647 -369 -665 -343 -665 -343 -883 -194 -883 -194 -854 -308 -854 -308 -862 -335 -862 -335 -610 -179 -610 -179 -422 -157 -422 -157 -507 66 -507 66 -651 176 -651 176 -748 8 -748 8 -664 -131 -664 -131 -695 -7 -695 -7 -730 -9 -730 -9 -780 177 -780 177 -847 581 -847 581 -781 187 -781 187 -599 176 -599 176 -401 -33 -401 -33 -350 -183 -350 -183 -323 -313 -323 -313 -379 -353 -379 -353 -359 -359 -359 -359 -293 -377 -293 -377 -268 -429 -268 -429 -80 -213 -80 -213 -175 -144 -175 -144 -76 -289 -76 -289 -4 -503 -4 -503 326 -255 326 -255 243 -363 243 -363 236 -307 236 -307 233 -364 233 -364 292 -447 292 -447 185 -179 185 -179 180 -198 180 -198 75 -242 75 -242 39 -11 39 -11 -155 270 -155 270 -159 336 -159 336 -258 75 -258 75 -203 -94 -203 -94 -284 395 -284 395 -366 279 -366 279 -385 245 -385 245 -639 699 -639 699 -659 742 -659 742 -525 792 -525 792 -430 761 -430 761 -504 713 -504 713 -574 703 -574 703 -564 630 -564 630 -486 485 -486 485 -464 476 -464 476 -498 442 -498 442 -318 443 -318 443 -337 458 -337 458 -248 460 -248 460 -371 675 -371 675 -311 656 -311 656 -208 696 -208 696 287 560 287 560 342 556 342 556 362 478 362 478 410 471 410 471 111 692 111 692 35 533 35 533 -138 550 -138 550 -39 622 -39 622 -278 497 -278 497 -97 469 -97 469 56 349 56 349 95 219 95 219 88 210 88 210 -25 326 -25 326 -31 144 -31 144 109 -55 109 -55 210 -63 210 -63 56 -119 56 -119 195 -134 195 -134 241 -138 241 -138 341 -305 341 -305 346 -591 346 -591 379 -645 379 -645 381 -401 381 -401 426 -635 426 -635 819 -620 819 -620 715 -588 715 -588 584 -449 584 -449 477 -23 477 -23 479 86 479 86 399 83 399 83 440 57 440 57 367 -103 367 -103 446 -117 446 -117 265 -44 265 -44 197 24 197 24 129 126 129 126 128 273 128 273 267 245 267 245 329 225 329 225 555 -235 555 -235 546 -284 546 -284 632 -169 632 -169 690 -125 690 -125 757 -153 757 -153 840 -171 840 -171 772 -516 772 -516 776 -340 776 -340 829 -181 829 -181 902 -593 902 -593 834 -594 834 -594 923 -372 923 -372 934 -237 934 -237 935 -388 935 -388 974 -109 974 -109 891 -86 891 -86 887 -77 887 -77 839 -52 839 -52 693 -84 693 -84 596 198 596 198 654 206 654 206 711 91 711 91 818 277 818 277 842 178 842 178 829 21 829 21 755 -47 755 -47 987 -661 987 -661 964 -774 964 -774 837 -850 837 -850 816 -789 816 -789 822 -692 822 -692 588 -823 588 -823 676 -817 676 -817 788 -922 788 -922 872 -972 872 -972 647 -946 647 -946 447 -963 447 -963 366 -930 366 -930 286 -887 286 -887 -344 -889 -344 -889 83"/></g></svg>