<svg xmlns="http://www.w3.org/2000/svg" width="500" height="500" version="1.1" viewBox="0 0 2000 2000"><desc>Generate from recti package</desc><g transform="translate(1000,1000)"><line x1="0" x2="-170" y1="0" y2="50" stroke="#000"/><line x1="-170" x2="-270" y1="50" y2="100" stroke="#000"/><line x1="-270" x2="-350" y1="100" y2="150" stroke="#000"/><line x1="-350" x2="-390" y1="150" y2="200" stroke="#000"/><line x1="-390" x2="-430" y1="200" y2="250" stroke="#000"/><rect width="40" height="30" x="-450" y="230" fill="#0ff" stroke="#000"/><text x="-430" y="250" text-anchor="middle">2,10</text><line x1="-390" x2="-350" y1="200" y2="250" stroke="#000"/><rect width="40" height="30" x="-370" y="230" fill="#0ff" stroke="#000"/><text x="-350" y="250" text-anchor="middle">3,15</text><ellipse cx="-390" cy="200" fill="#ff0" stroke="#000" rx="20" ry="15"/><text x="-390" y="200" text-anchor="middle">3,10</text><line x1="-350" x2="-310" y1="150" y2="200" stroke="#000"/><rect width="40" height="30" x="-330" y="180" fill="#0ff" stroke="#000"/><text x="-310" y="200" text-anchor="middle">6,20</text><ellipse cx="-350" cy="150" fill="#ff0" stroke="#000" rx="20" ry="15"/><text x="-350" y="150" text-anchor="middle">6,10</text><line x1="-270" x2="-190" y1="100" y2="150" stroke="#000"/><line x1="-190" x2="-230" y1="150" y2="200" stroke="#000"/><line x1="-230" x2="-270" y1="200" y2="250" stroke="#000"/><rect width="40" height="30" x="-290" y="230" fill="#0ff" stroke="#000"/><text x="-270" y="250" text-anchor="middle">9,29</text><line x1="-230" x2="-190" y1="200" y2="250" stroke="#000"/><rect width="40" height="30" x="-210" y="230" fill="#0ff" stroke="#000"/><text x="-190" y="250" text-anchor="middle">10,3</text><ellipse cx="-230" cy="200" fill="#ff0" stroke="#000" rx="20" ry="15"/><text x="-230" y="200" text-anchor="middle">10,3</text><line x1="-190" x2="-150" y1="150" y2="200" stroke="#000"/><rect width="40" height="30" x="-170" y="180" fill="#0ff" stroke="#000"/><text x="-150" y="200" text-anchor="middle">12,7</text><ellipse cx="-190" cy="150" fill="#ff0" stroke="#000" rx="20" ry="15"/><text x="-190" y="150" text-anchor="middle">12,3</text><ellipse cx="-270" cy="100" fill="#ff0" stroke="#000" rx="20" ry="15"/><text x="-270" y="100" text-anchor="middle">9,3</text><line x1="-170" x2="-70" y1="50" y2="100" stroke="#000"/><line x1="-70" x2="-110" y1="100" y2="150" stroke="#000"/><rect width="40" height="30" x="-130" y="130" fill="#0ff" stroke="#000"/><text x="-110" y="150" text-anchor="middle">15,11</text><line x1="-70" x2="-30" y1="100" y2="150" stroke="#000"/><line x1="-30" x2="-70" y1="150" y2="200" stroke="#000"/><line x1="-70" x2="-110" y1="200" y2="250" stroke="#000"/><rect width="40" height="30" x="-130" y="230" fill="#0ff" stroke="#000"/><text x="-110" y="250" text-anchor="middle">17,26</text><line x1="-70" x2="-30" y1="200" y2="250" stroke="#000"/><rect width="40" height="30" x="-50" y="230" fill="#0ff" stroke="#000"/><text x="-30" y="250" text-anchor="middle">19,27</text><ellipse cx="-70" cy="200" fill="#ff0" stroke="#000" rx="20" ry="15"/><text x="-70" y="200" text-anchor="middle">19,26</text><line x1="-30" x2="10" y1="150" y2="200" stroke="#000"/><rect width="40" height="30" x="-10" y="180" fill="#0ff" stroke="#000"/><text x="10" y="200" text-anchor="middle">21,22</text><ellipse cx="-30" cy="150" fill="#ff0" stroke="#000" rx="20" ry="15"/><text x="-30" y="150" text-anchor="middle">21,22</text><ellipse cx="-70" cy="100" fill="#ff0" stroke="#000" rx="20" ry="15"/><text x="-70" y="100" text-anchor="middle">17,11</text><ellipse cx="-170" cy="50" fill="#ff0" stroke="#000" rx="20" ry="15"/><text x="-170" y="50" text-anchor="middle">15,3</text><line x1="0" x2="170" y1="0" y2="50" stroke="#000"/><line x1="170" x2="90" y1="50" y2="100" stroke="#000"/><line x1="90" x2="50" y1="100" y2="150" stroke="#000"/><rect width="40" height="30" x="30" y="130" fill="#0ff" stroke="#000"/><text x="50" y="150" text-anchor="middle">23,6</text><line x1="90" x2="130" y1="100" y2="150" stroke="#000"/><line x1="130" x2="90" y1="150" y2="200" stroke="#000"/><rect width="40" height="30" x="70" y="180" fill="#0ff" stroke="#000"/><text x="90" y="200" text-anchor="middle">26,8</text><line x1="130" x2="170" y1="150" y2="200" stroke="#000"/><rect width="40" height="30" x="150" y="180" fill="#0ff" stroke="#000"/><text x="170" y="200" text-anchor="middle">27,22</text><ellipse cx="130" cy="150" fill="#ff0" stroke="#000" rx="20" ry="15"/><text x="130" y="150" text-anchor="middle">27,8</text><ellipse cx="90" cy="100" fill="#ff0" stroke="#000" rx="20" ry="15"/><text x="90" y="100" text-anchor="middle">26,6</text><line x1="170" x2="250" y1="50" y2="100" stroke="#000"/><line x1="250" x2="210" y1="100" y2="150" stroke="#000"/><rect width="40" height="30" x="190" y="130" fill="#0ff" stroke="#000"/><text x="210" y="150" text-anchor="middle">33,16</text><line x1="250" x2="290" y1="100" y2="150" stroke="#000"/><rect width="40" height="30" x="270" y="130" fill="#0ff" stroke="#000"/><text x="290" y="150" text-anchor="middle">35,12</text><ellipse cx="250" cy="100" fill="#ff0" stroke="#000" rx="20" ry="15"/><text x="250" y="100" text-anchor="middle">35,12</text><ellipse cx="170" cy="50" fill="#ff0" stroke="#000" rx="20" ry="15"/><text x="170" y="50" text-anchor="middle">33,6</text><ellipse cx="0" cy="0" fill="#ff0" stroke="#000" rx="20" ry="15"/><text x="0" y="0" text-anchor="middle">23,3</text></g></svg>