<?xml version="1.0" standalone="no"?>
<!DOCTYPE svg PUBLIC "-//W3C/DTD SVG 1.1//EN"
  "http://www.w3.org/Graphics/SVG/1.1/DTD/svg11.dtd">
<svg width="500px" height="500px" viewBox="0 0 2000 2000"
  xmlns="http://www.w3.org/2000/svg" version="1.1">
  <desc>Generate from recti package</desc>
  <g transform="translate(1000,1000)">
  <line  x1="0" y1="0" x2="-170" y2="50" style="stroke:black;"/>
  <line  x1="-170" y1="50" x2="-270" y2="100" style="stroke:black;"/>
  <line  x1="-270" y1="100" x2="-350" y2="150" style="stroke:black;"/>
  <line  x1="-350" y1="150" x2="-390" y2="200" style="stroke:black;"/>
  <line  x1="-390" y1="200" x2="-430" y2="250" style="stroke:black;"/>
  <rect x="-450" y="230" width="40" height="30" style="fill:cyan;stroke:black;"/>
  <text text-anchor="middle" x="-430" y="250">2,10</text>
  <line  x1="-390" y1="200" x2="-350" y2="250" style="stroke:black;"/>
  <rect x="-370" y="230" width="40" height="30" style="fill:cyan;stroke:black;"/>
  <text text-anchor="middle" x="-350" y="250">3,15</text>
  <ellipse cx="-390" cy="200" rx="20" ry="15" style="fill:yellow;stroke:black;"/>
  <text text-anchor="middle" x="-390" y="200">3,10</text>
  <line  x1="-350" y1="150" x2="-310" y2="200" style="stroke:black;"/>
  <rect x="-330" y="180" width="40" height="30" style="fill:cyan;stroke:black;"/>
  <text text-anchor="middle" x="-310" y="200">6,20</text>
  <ellipse cx="-350" cy="150" rx="20" ry="15" style="fill:yellow;stroke:black;"/>
  <text text-anchor="middle" x="-350" y="150">6,10</text>
  <line  x1="-270" y1="100" x2="-190" y2="150" style="stroke:black;"/>
  <line  x1="-190" y1="150" x2="-230" y2="200" style="stroke:black;"/>
  <line  x1="-230" y1="200" x2="-270" y2="250" style="stroke:black;"/>
  <rect x="-290" y="230" width="40" height="30" style="fill:cyan;stroke:black;"/>
  <text text-anchor="middle" x="-270" y="250">9,29</text>
  <line  x1="-230" y1="200" x2="-190" y2="250" style="stroke:black;"/>
  <rect x="-210" y="230" width="40" height="30" style="fill:cyan;stroke:black;"/>
  <text text-anchor="middle" x="-190" y="250">10,3</text>
  <ellipse cx="-230" cy="200" rx="20" ry="15" style="fill:yellow;stroke:black;"/>
  <text text-anchor="middle" x="-230" y="200">10,3</text>
  <line  x1="-190" y1="150" x2="-150" y2="200" style="stroke:black;"/>
  <rect x="-170" y="180" width="40" height="30" style="fill:cyan;stroke:black;"/>
  <text text-anchor="middle" x="-150" y="200">12,7</text>
  <ellipse cx="-190" cy="150" rx="20" ry="15" style="fill:yellow;stroke:black;"/>
  <text text-anchor="middle" x="-190" y="150">12,3</text>
  <ellipse cx="-270" cy="100" rx="20" ry="15" style="fill:yellow;stroke:black;"/>
  <text text-anchor="middle" x="-270" y="100">9,3</text>
  <line  x1="-170" y1="50" x2="-70" y2="100" style="stroke:black;"/>
  <line  x1="-70" y1="100" x2="-110" y2="150" style="stroke:black;"/>
  <rect x="-130" y="130" width="40" height="30" style="fill:cyan;stroke:black;"/>
  <text text-anchor="middle" x="-110" y="150">15,11</text>
  <line  x1="-70" y1="100" x2="-30" y2="150" style="stroke:black;"/>
  <line  x1="-30" y1="150" x2="-70" y2="200" style="stroke:black;"/>
  <line  x1="-70" y1="200" x2="-110" y2="250" style="stroke:black;"/>
  <rect x="-130" y="230" width="40" height="30" style="fill:cyan;stroke:black;"/>
  <text text-anchor="middle" x="-110" y="250">17,26</text>
  <line  x1="-70" y1="200" x2="-30" y2="250" style="stroke:black;"/>
  <rect x="-50" y="230" width="40" height="30" style="fill:cyan;stroke:black;"/>
  <text text-anchor="middle" x="-30" y="250">19,27</text>
  <ellipse cx="-70" cy="200" rx="20" ry="15" style="fill:yellow;stroke:black;"/>
  <text text-anchor="middle" x="-70" y="200">19,26</text>
  <line  x1="-30" y1="150" x2="10" y2="200" style="stroke:black;"/>
  <rect x="-10" y="180" width="40" height="30" style="fill:cyan;stroke:black;"/>
  <text text-anchor="middle" x="10" y="200">21,22</text>
  <ellipse cx="-30" cy="150" rx="20" ry="15" style="fill:yellow;stroke:black;"/>
  <text text-anchor="middle" x="-30" y="150">21,22</text>
  <ellipse cx="-70" cy="100" rx="20" ry="15" style="fill:yellow;stroke:black;"/>
  <text text-anchor="middle" x="-70" y="100">17,11</text>
  <ellipse cx="-170" cy="50" rx="20" ry="15" style="fill:yellow;stroke:black;"/>
  <text text-anchor="middle" x="-170" y="50">15,3</text>
  <line  x1="0" y1="0" x2="170" y2="50" style="stroke:black;"/>
  <line  x1="170" y1="50" x2="90" y2="100" style="stroke:black;"/>
  <line  x1="90" y1="100" x2="50" y2="150" style="stroke:black;"/>
  <rect x="30" y="130" width="40" height="30" style="fill:cyan;stroke:black;"/>
  <text text-anchor="middle" x="50" y="150">23,6</text>
  <line  x1="90" y1="100" x2="130" y2="150" style="stroke:black;"/>
  <line  x1="130" y1="150" x2="90" y2="200" style="stroke:black;"/>
  <rect x="70" y="180" width="40" height="30" style="fill:cyan;stroke:black;"/>
  <text text-anchor="middle" x="90" y="200">26,8</text>
  <line  x1="130" y1="150" x2="170" y2="200" style="stroke:black;"/>
  <rect x="150" y="180" width="40" height="30" style="fill:cyan;stroke:black;"/>
  <text text-anchor="middle" x="170" y="200">27,22</text>
  <ellipse cx="130" cy="150" rx="20" ry="15" style="fill:yellow;stroke:black;"/>
  <text text-anchor="middle" x="130" y="150">27,8</text>
  <ellipse cx="90" cy="100" rx="20" ry="15" style="fill:yellow;stroke:black;"/>
  <text text-anchor="middle" x="90" y="100">26,6</text>
  <line  x1="170" y1="50" x2="250" y2="100" style="stroke:black;"/>
  <line  x1="250" y1="100" x2="210" y2="150" style="stroke:black;"/>
  <rect x="190" y="130" width="40" height="30" style="fill:cyan;stroke:black;"/>
  <text text-anchor="middle" x="210" y="150">33,16</text>
  <line  x1="250" y1="100" x2="290" y2="150" style="stroke:black;"/>
  <rect x="270" y="130" width="40" height="30" style="fill:cyan;stroke:black;"/>
  <text text-anchor="middle" x="290" y="150">35,12</text>
  <ellipse cx="250" cy="100" rx="20" ry="15" style="fill:yellow;stroke:black;"/>
  <text text-anchor="middle" x="250" y="100">35,12</text>
  <ellipse cx="170" cy="50" rx="20" ry="15" style="fill:yellow;stroke:black;"/>
  <text text-anchor="middle" x="170" y="50">33,6</text>
  <ellipse cx="0" cy="0" rx="20" ry="15" style="fill:yellow;stroke:black;"/>
  <text text-anchor="middle" x="0" y="0">23,3</text>
  </g>
</svg>