<svg xmlns="http://www.w3.org/2000/svg" width="100%" height="100%" version="1.1" viewBox="-600 -50 1000 350"><desc>Generate from recti package</desc><g><line x1="0" x2="-220" y1="0" y2="50" stroke="#000"/><line x1="-220" x2="-380" y1="50" y2="100" stroke="#000"/><line x1="-380" x2="-460" y1="100" y2="150" stroke="#000"/><line x1="-460" x2="-500" y1="150" y2="200" stroke="#000"/><line x1="-500" x2="-540" y1="200" y2="250" stroke="#000"/><rect width="40" height="30" x="-560" y="230" fill="#0ff" stroke="#000"/><text x="-540" y="250" text-anchor="middle">2,10</text><line x1="-500" x2="-460" y1="200" y2="250" stroke="#000"/><rect width="40" height="30" x="-480" y="230" fill="#0ff" stroke="#000"/><text x="-460" y="250" text-anchor="middle">3,15</text><ellipse cx="-500" cy="200" fill="#ff0" stroke="#000" rx="20" ry="15"/><text x="-500" y="200" text-anchor="middle">3,10</text><line x1="-460" x2="-420" y1="150" y2="200" stroke="#000"/><rect width="40" height="30" x="-440" y="180" fill="#0ff" stroke="#000"/><text x="-420" y="200" text-anchor="middle">6,20</text><ellipse cx="-460" cy="150" fill="#ff0" stroke="#000" rx="20" ry="15"/><text x="-460" y="150" text-anchor="middle">6,10</text><line x1="-380" x2="-300" y1="100" y2="150" stroke="#000"/><line x1="-300" x2="-340" y1="150" y2="200" stroke="#000"/><line x1="-340" x2="-380" y1="200" y2="250" stroke="#000"/><rect width="40" height="30" x="-400" y="230" fill="#0ff" stroke="#000"/><text x="-380" y="250" text-anchor="middle">9,29</text><line x1="-340" x2="-300" y1="200" y2="250" stroke="#000"/><rect width="40" height="30" x="-320" y="230" fill="#0ff" stroke="#000"/><text x="-300" y="250" text-anchor="middle">10,3</text><ellipse cx="-340" cy="200" fill="#ff0" stroke="#000" rx="20" ry="15"/><text x="-340" y="200" text-anchor="middle">10,3</text><line x1="-300" x2="-260" y1="150" y2="200" stroke="#000"/><rect width="40" height="30" x="-280" y="180" fill="#0ff" stroke="#000"/><text x="-260" y="200" text-anchor="middle">12,7</text><ellipse cx="-300" cy="150" fill="#ff0" stroke="#000" rx="20" ry="15"/><text x="-300" y="150" text-anchor="middle">12,3</text><ellipse cx="-380" cy="100" fill="#ff0" stroke="#000" rx="20" ry="15"/><text x="-380" y="100" text-anchor="middle">9,3</text><line x1="-220" x2="-60" y1="50" y2="100" stroke="#000"/><line x1="-60" x2="-140" y1="100" y2="150" stroke="#000"/><line x1="-140" x2="-180" y1="150" y2="200" stroke="#000"/><rect width="40" height="30" x="-200" y="180" fill="#0ff" stroke="#000"/><text x="-180" y="200" text-anchor="middle">15,11</text><line x1="-140" x2="-100" y1="150" y2="200" stroke="#000"/><line x1="-100" x2="-140" y1="200" y2="250" stroke="#000"/><rect width="40" height="30" x="-160" y="230" fill="#0ff" stroke="#000"/><text x="-140" y="250" text-anchor="middle">17,26</text><line x1="-100" x2="-60" y1="200" y2="250" stroke="#000"/><rect width="40" height="30" x="-80" y="230" fill="#0ff" stroke="#000"/><text x="-60" y="250" text-anchor="middle">18,5</text><ellipse cx="-100" cy="200" fill="#ff0" stroke="#000" rx="20" ry="15"/><text x="-100" y="200" text-anchor="middle">18,5</text><ellipse cx="-140" cy="150" fill="#ff0" stroke="#000" rx="20" ry="15"/><text x="-140" y="150" text-anchor="middle">17,5</text><line x1="-60" x2="20" y1="100" y2="150" stroke="#000"/><line x1="20" x2="-20" y1="150" y2="200" stroke="#000"/><rect width="40" height="30" x="-40" y="180" fill="#0ff" stroke="#000"/><text x="-20" y="200" text-anchor="middle">19,27</text><line x1="20" x2="60" y1="150" y2="200" stroke="#000"/><rect width="40" height="30" x="40" y="180" fill="#0ff" stroke="#000"/><text x="60" y="200" text-anchor="middle">21,22</text><ellipse cx="20" cy="150" fill="#ff0" stroke="#000" rx="20" ry="15"/><text x="20" y="150" text-anchor="middle">21,22</text><ellipse cx="-60" cy="100" fill="#ff0" stroke="#000" rx="20" ry="15"/><text x="-60" y="100" text-anchor="middle">19,5</text><ellipse cx="-220" cy="50" fill="#ff0" stroke="#000" rx="20" ry="15"/><text x="-220" y="50" text-anchor="middle">15,3</text><line x1="0" x2="220" y1="0" y2="50" stroke="#000"/><line x1="220" x2="140" y1="50" y2="100" stroke="#000"/><line x1="140" x2="100" y1="100" y2="150" stroke="#000"/><rect width="40" height="30" x="80" y="130" fill="#0ff" stroke="#000"/><text x="100" y="150" text-anchor="middle">23,6</text><line x1="140" x2="180" y1="100" y2="150" stroke="#000"/><line x1="180" x2="140" y1="150" y2="200" stroke="#000"/><rect width="40" height="30" x="120" y="180" fill="#0ff" stroke="#000"/><text x="140" y="200" text-anchor="middle">26,8</text><line x1="180" x2="220" y1="150" y2="200" stroke="#000"/><rect width="40" height="30" x="200" y="180" fill="#0ff" stroke="#000"/><text x="220" y="200" text-anchor="middle">27,22</text><ellipse cx="180" cy="150" fill="#ff0" stroke="#000" rx="20" ry="15"/><text x="180" y="150" text-anchor="middle">27,8</text><ellipse cx="140" cy="100" fill="#ff0" stroke="#000" rx="20" ry="15"/><text x="140" y="100" text-anchor="middle">26,6</text><line x1="220" x2="300" y1="50" y2="100" stroke="#000"/><line x1="300" x2="260" y1="100" y2="150" stroke="#000"/><rect width="40" height="30" x="240" y="130" fill="#0ff" stroke="#000"/><text x="260" y="150" text-anchor="middle">33,16</text><line x1="300" x2="340" y1="100" y2="150" stroke="#000"/><rect width="40" height="30" x="320" y="130" fill="#0ff" stroke="#000"/><text x="340" y="150" text-anchor="middle">35,12</text><ellipse cx="300" cy="100" fill="#ff0" stroke="#000" rx="20" ry="15"/><text x="300" y="100" text-anchor="middle">35,12</text><ellipse cx="220" cy="50" fill="#ff0" stroke="#000" rx="20" ry="15"/><text x="220" y="50" text-anchor="middle">33,6</text><ellipse cx="0" cy="0" fill="#ff0" stroke="#000" rx="20" ry="15"/><text x="0" y="0" text-anchor="middle">23,3</text></g></svg>