<?xml version="1.0" standalone="no"?>
<!DOCTYPE svg PUBLIC "-//W3C/DTD SVG 1.1//EN"
  "http://www.w3.org/Graphics/SVG/1.1/DTD/svg11.dtd">
<svg width="100%" height="100%" viewBox="-600 -50 1000 350"
  xmlns="http://www.w3.org/2000/svg" version="1.1">
  <desc>Generate from recti package</desc>
  <g>
  <line  x1="0" y1="0" x2="-220" y2="50" style="stroke:black;"/>
  <line  x1="-220" y1="50" x2="-380" y2="100" style="stroke:black;"/>
  <line  x1="-380" y1="100" x2="-460" y2="150" style="stroke:black;"/>
  <line  x1="-460" y1="150" x2="-500" y2="200" style="stroke:black;"/>
  <line  x1="-500" y1="200" x2="-540" y2="250" style="stroke:black;"/>
  <rect x="-560" y="230" width="40" height="30" style="fill:cyan;stroke:black;"/>
  <text text-anchor="middle" x="-540" y="250">2,10</text>
  <line  x1="-500" y1="200" x2="-460" y2="250" style="stroke:black;"/>
  <rect x="-480" y="230" width="40" height="30" style="fill:cyan;stroke:black;"/>
  <text text-anchor="middle" x="-460" y="250">3,15</text>
  <ellipse cx="-500" cy="200" rx="20" ry="15" style="fill:yellow;stroke:black;"/>
  <text text-anchor="middle" x="-500" y="200">3,10</text>
  <line  x1="-460" y1="150" x2="-420" y2="200" style="stroke:black;"/>
  <rect x="-440" y="180" width="40" height="30" style="fill:cyan;stroke:black;"/>
  <text text-anchor="middle" x="-420" y="200">6,20</text>
  <ellipse cx="-460" cy="150" rx="20" ry="15" style="fill:yellow;stroke:black;"/>
  <text text-anchor="middle" x="-460" y="150">6,10</text>
  <line  x1="-380" y1="100" x2="-300" y2="150" style="stroke:black;"/>
  <line  x1="-300" y1="150" x2="-340" y2="200" style="stroke:black;"/>
  <line  x1="-340" y1="200" x2="-380" y2="250" style="stroke:black;"/>
  <rect x="-400" y="230" width="40" height="30" style="fill:cyan;stroke:black;"/>
  <text text-anchor="middle" x="-380" y="250">9,29</text>
  <line  x1="-340" y1="200" x2="-300" y2="250" style="stroke:black;"/>
  <rect x="-320" y="230" width="40" height="30" style="fill:cyan;stroke:black;"/>
  <text text-anchor="middle" x="-300" y="250">10,3</text>
  <ellipse cx="-340" cy="200" rx="20" ry="15" style="fill:yellow;stroke:black;"/>
  <text text-anchor="middle" x="-340" y="200">10,3</text>
  <line  x1="-300" y1="150" x2="-260" y2="200" style="stroke:black;"/>
  <rect x="-280" y="180" width="40" height="30" style="fill:cyan;stroke:black;"/>
  <text text-anchor="middle" x="-260" y="200">12,7</text>
  <ellipse cx="-300" cy="150" rx="20" ry="15" style="fill:yellow;stroke:black;"/>
  <text text-anchor="middle" x="-300" y="150">12,3</text>
  <ellipse cx="-380" cy="100" rx="20" ry="15" style="fill:yellow;stroke:black;"/>
  <text text-anchor="middle" x="-380" y="100">9,3</text>
  <line  x1="-220" y1="50" x2="-60" y2="100" style="stroke:black;"/>
  <line  x1="-60" y1="100" x2="-140" y2="150" style="stroke:black;"/>
  <line  x1="-140" y1="150" x2="-180" y2="200" style="stroke:black;"/>
  <rect x="-200" y="180" width="40" height="30" style="fill:cyan;stroke:black;"/>
  <text text-anchor="middle" x="-180" y="200">15,11</text>
  <line  x1="-140" y1="150" x2="-100" y2="200" style="stroke:black;"/>
  <line  x1="-100" y1="200" x2="-140" y2="250" style="stroke:black;"/>
  <rect x="-160" y="230" width="40" height="30" style="fill:cyan;stroke:black;"/>
  <text text-anchor="middle" x="-140" y="250">17,26</text>
  <line  x1="-100" y1="200" x2="-60" y2="250" style="stroke:black;"/>
  <rect x="-80" y="230" width="40" height="30" style="fill:cyan;stroke:black;"/>
  <text text-anchor="middle" x="-60" y="250">18,5</text>
  <ellipse cx="-100" cy="200" rx="20" ry="15" style="fill:yellow;stroke:black;"/>
  <text text-anchor="middle" x="-100" y="200">18,5</text>
  <ellipse cx="-140" cy="150" rx="20" ry="15" style="fill:yellow;stroke:black;"/>
  <text text-anchor="middle" x="-140" y="150">17,5</text>
  <line  x1="-60" y1="100" x2="20" y2="150" style="stroke:black;"/>
  <line  x1="20" y1="150" x2="-20" y2="200" style="stroke:black;"/>
  <rect x="-40" y="180" width="40" height="30" style="fill:cyan;stroke:black;"/>
  <text text-anchor="middle" x="-20" y="200">19,27</text>
  <line  x1="20" y1="150" x2="60" y2="200" style="stroke:black;"/>
  <rect x="40" y="180" width="40" height="30" style="fill:cyan;stroke:black;"/>
  <text text-anchor="middle" x="60" y="200">21,22</text>
  <ellipse cx="20" cy="150" rx="20" ry="15" style="fill:yellow;stroke:black;"/>
  <text text-anchor="middle" x="20" y="150">21,22</text>
  <ellipse cx="-60" cy="100" rx="20" ry="15" style="fill:yellow;stroke:black;"/>
  <text text-anchor="middle" x="-60" y="100">19,5</text>
  <ellipse cx="-220" cy="50" rx="20" ry="15" style="fill:yellow;stroke:black;"/>
  <text text-anchor="middle" x="-220" y="50">15,3</text>
  <line  x1="0" y1="0" x2="220" y2="50" style="stroke:black;"/>
  <line  x1="220" y1="50" x2="140" y2="100" style="stroke:black;"/>
  <line  x1="140" y1="100" x2="100" y2="150" style="stroke:black;"/>
  <rect x="80" y="130" width="40" height="30" style="fill:cyan;stroke:black;"/>
  <text text-anchor="middle" x="100" y="150">23,6</text>
  <line  x1="140" y1="100" x2="180" y2="150" style="stroke:black;"/>
  <line  x1="180" y1="150" x2="140" y2="200" style="stroke:black;"/>
  <rect x="120" y="180" width="40" height="30" style="fill:cyan;stroke:black;"/>
  <text text-anchor="middle" x="140" y="200">26,8</text>
  <line  x1="180" y1="150" x2="220" y2="200" style="stroke:black;"/>
  <rect x="200" y="180" width="40" height="30" style="fill:cyan;stroke:black;"/>
  <text text-anchor="middle" x="220" y="200">27,22</text>
  <ellipse cx="180" cy="150" rx="20" ry="15" style="fill:yellow;stroke:black;"/>
  <text text-anchor="middle" x="180" y="150">27,8</text>
  <ellipse cx="140" cy="100" rx="20" ry="15" style="fill:yellow;stroke:black;"/>
  <text text-anchor="middle" x="140" y="100">26,6</text>
  <line  x1="220" y1="50" x2="300" y2="100" style="stroke:black;"/>
  <line  x1="300" y1="100" x2="260" y2="150" style="stroke:black;"/>
  <rect x="240" y="130" width="40" height="30" style="fill:cyan;stroke:black;"/>
  <text text-anchor="middle" x="260" y="150">33,16</text>
  <line  x1="300" y1="100" x2="340" y2="150" style="stroke:black;"/>
  <rect x="320" y="130" width="40" height="30" style="fill:cyan;stroke:black;"/>
  <text text-anchor="middle" x="340" y="150">35,12</text>
  <ellipse cx="300" cy="100" rx="20" ry="15" style="fill:yellow;stroke:black;"/>
  <text text-anchor="middle" x="300" y="100">35,12</text>
  <ellipse cx="220" cy="50" rx="20" ry="15" style="fill:yellow;stroke:black;"/>
  <text text-anchor="middle" x="220" y="50">33,6</text>
  <ellipse cx="0" cy="0" rx="20" ry="15" style="fill:yellow;stroke:black;"/>
  <text text-anchor="middle" x="0" y="0">23,3</text>
  </g>
</svg>