<svg xmlns="http://www.w3.org/2000/svg" xmlns:cc="http://web.resource.org/cc/" xmlns:svg="http://www.w3.org/2000/svg" id="svg2" width="100%" height="100%" version="1.1" viewBox="-500 -50 900 400"><metadata id="metadata195"/><desc id="desc4">Generate from recti package</desc><g id="g6"><line id="line8" x1="0" x2="-170" y1="0" y2="50" stroke="#000"/><line id="line10" x1="-170" x2="-270" y1="50" y2="100" stroke="#000"/><line id="line12" x1="-270" x2="-350" y1="100" y2="150" stroke="#000"/><line id="line14" x1="-350" x2="-390" y1="150" y2="200" stroke="#000"/><line id="line16" x1="-390" x2="-430" y1="200" y2="250" stroke="#000"/><rect id="rect18" width="40" height="30" x="-450" y="230" fill="#0ff" stroke="#000"/><text id="text20" x="-430" y="250" text-anchor="middle">2,10</text><line id="line22" x1="-390" x2="-350" y1="200" y2="250" stroke="#000"/><rect id="rect24" width="40" height="30" x="-370" y="230" fill="#0ff" stroke="#000"/><text id="text26" x="-350" y="250" text-anchor="middle">3,15</text><ellipse id="ellipse28" cx="-390" cy="200" fill="#ff0" stroke="#000" rx="20" ry="15"/><text id="text30" x="-390" y="200" text-anchor="middle">3,10</text><line id="line32" x1="-350" x2="-310" y1="150" y2="200" stroke="#000"/><rect id="rect34" width="40" height="30" x="-330" y="180" fill="#0ff" stroke="#000"/><text id="text36" x="-310" y="200" text-anchor="middle">6,20</text><ellipse id="ellipse38" cx="-350" cy="150" fill="#ff0" stroke="#000" rx="20" ry="15"/><text id="text40" x="-350" y="150" text-anchor="middle">6,10</text><line id="line42" x1="-270" x2="-190" y1="100" y2="150" stroke="#000"/><line id="line44" x1="-190" x2="-230" y1="150" y2="200" stroke="#000"/><line id="line46" x1="-230" x2="-270" y1="200" y2="250" stroke="#000"/><rect id="rect48" width="40" height="30" x="-290" y="230" fill="#0ff" stroke="#000"/><text id="text50" x="-270" y="250" text-anchor="middle">9,29</text><line id="line52" x1="-230" x2="-190" y1="200" y2="250" stroke="#000"/><rect id="rect54" width="40" height="30" x="-210" y="230" fill="#0ff" stroke="#000"/><text id="text56" x="-190" y="250" text-anchor="middle">10,3</text><ellipse id="ellipse58" cx="-230" cy="200" fill="#ff0" stroke="#000" rx="20" ry="15"/><text id="text60" x="-230" y="200" text-anchor="middle">10,3</text><line id="line62" x1="-190" x2="-150" y1="150" y2="200" stroke="#000"/><rect id="rect64" width="40" height="30" x="-170" y="180" fill="#0ff" stroke="#000"/><text id="text66" x="-150" y="200" text-anchor="middle">12,7</text><ellipse id="ellipse68" cx="-190" cy="150" fill="#ff0" stroke="#000" rx="20" ry="15"/><text id="text70" x="-190" y="150" text-anchor="middle">12,3</text><ellipse id="ellipse72" cx="-270" cy="100" fill="#ff0" stroke="#000" rx="20" ry="15"/><text id="text74" x="-270" y="100" text-anchor="middle">9,3</text><line id="line76" x1="-170" x2="-70" y1="50" y2="100" stroke="#000" stroke-dasharray="none" stroke-miterlimit="4" stroke-width="3"/><line id="line78" x1="-70" x2="-110" y1="100" y2="150" stroke="#000"/><rect id="rect80" width="40" height="30" x="-130" y="130" fill="#0ff" stroke="#000"/><text id="text82" x="-110" y="150" text-anchor="middle">15,11</text><line id="line84" x1="-70" x2="-30" y1="100" y2="150" stroke="#000" stroke-dasharray="none" stroke-miterlimit="4" stroke-width="3"/><line id="line86" x1="-30" x2="-70" y1="150" y2="200" stroke="#000" stroke-dasharray="none" stroke-miterlimit="4" stroke-width="3"/><line id="line88" x1="-70" x2="-110" y1="200" y2="250" stroke="#000" stroke-dasharray="none" stroke-miterlimit="4" stroke-width="3"/><line id="line90" x1="-110" x2="-150" y1="250" y2="300" stroke="#000"/><rect id="rect92" width="40" height="30" x="-170" y="280" fill="#0ff" stroke="#000"/><text id="text94" x="-150" y="300" text-anchor="middle">17,26</text><line id="line96" x1="-110" x2="-70" y1="250" y2="300" stroke="#000" stroke-dasharray="none" stroke-miterlimit="4" stroke-width="3"/><rect id="rect98" width="40" height="30" x="-90" y="280" fill="#0ff" stroke="#000" stroke-dasharray="none" stroke-miterlimit="4" stroke-width="3"/><text id="text100" x="-70" y="300" text-anchor="middle">18,5</text><ellipse id="ellipse102" cx="-110" cy="250" fill="#ff0" stroke="#000" stroke-dasharray="none" stroke-miterlimit="4" stroke-width="3" rx="20" ry="15"/><text id="text104" x="-110" y="250" text-anchor="middle">18,26</text><line id="line106" x1="-70" x2="-30" y1="200" y2="250" stroke="#000"/><rect id="rect108" width="40" height="30" x="-50" y="230" fill="#0ff" stroke="#000"/><text id="text110" x="-30" y="250" text-anchor="middle">19,27</text><ellipse id="ellipse112" cx="-70" cy="200" fill="#ff0" stroke="#000" stroke-dasharray="none" stroke-miterlimit="4" stroke-width="3" rx="20" ry="15"/><text id="text114" x="-70" y="200" text-anchor="middle">19,26</text><line id="line116" x1="-30" x2="10" y1="150" y2="200" stroke="#000"/><rect id="rect118" width="40" height="30" x="-10" y="180" fill="#0ff" stroke="#000"/><text id="text120" x="10" y="200" text-anchor="middle">21,22</text><ellipse id="ellipse122" cx="-30" cy="150" fill="#ff0" stroke="#000" stroke-dasharray="none" stroke-miterlimit="4" stroke-width="3" rx="20" ry="15"/><text id="text124" x="-30" y="150" text-anchor="middle">21,22</text><ellipse id="ellipse126" cx="-70" cy="100" fill="#ff0" stroke="#000" stroke-dasharray="none" stroke-miterlimit="4" stroke-width="3" rx="20" ry="15"/><text id="text128" x="-70" y="100" text-anchor="middle">17,11</text><ellipse id="ellipse130" cx="-170" cy="50" fill="#ff0" stroke="#000" stroke-dasharray="none" stroke-miterlimit="4" stroke-width="3" rx="20" ry="15"/><text id="text132" x="-170" y="50" text-anchor="middle">15,3</text><line id="line134" x1="0" x2="170" y1="0" y2="50" stroke="#000"/><line id="line136" x1="170" x2="90" y1="50" y2="100" stroke="#000"/><line id="line138" x1="90" x2="50" y1="100" y2="150" stroke="#000"/><rect id="rect140" width="40" height="30" x="30" y="130" fill="#0ff" stroke="#000"/><text id="text142" x="50" y="150" text-anchor="middle">23,6</text><line id="line144" x1="90" x2="130" y1="100" y2="150" stroke="#000"/><line id="line146" x1="130" x2="90" y1="150" y2="200" stroke="#000"/><rect id="rect148" width="40" height="30" x="70" y="180" fill="#0ff" stroke="#000"/><text id="text150" x="90" y="200" text-anchor="middle">26,8</text><line id="line152" x1="130" x2="170" y1="150" y2="200" stroke="#000"/><rect id="rect154" width="40" height="30" x="150" y="180" fill="#0ff" stroke="#000"/><text id="text156" x="170" y="200" text-anchor="middle">27,22</text><ellipse id="ellipse158" cx="130" cy="150" fill="#ff0" stroke="#000" rx="20" ry="15"/><text id="text160" x="130" y="150" text-anchor="middle">27,8</text><ellipse id="ellipse162" cx="90" cy="100" fill="#ff0" stroke="#000" rx="20" ry="15"/><text id="text164" x="90" y="100" text-anchor="middle">26,6</text><line id="line166" x1="170" x2="250" y1="50" y2="100" stroke="#000"/><line id="line168" x1="250" x2="210" y1="100" y2="150" stroke="#000"/><rect id="rect170" width="40" height="30" x="190" y="130" fill="#0ff" stroke="#000"/><text id="text172" x="210" y="150" text-anchor="middle">33,16</text><line id="line174" x1="250" x2="290" y1="100" y2="150" stroke="#000"/><rect id="rect176" width="40" height="30" x="270" y="130" fill="#0ff" stroke="#000"/><text id="text178" x="290" y="150" text-anchor="middle">35,12</text><ellipse id="ellipse180" cx="250" cy="100" fill="#ff0" stroke="#000" rx="20" ry="15"/><text id="text182" x="250" y="100" text-anchor="middle">35,12</text><ellipse id="ellipse184" cx="170" cy="50" fill="#ff0" stroke="#000" rx="20" ry="15"/><text id="text186" x="170" y="50" text-anchor="middle">33,6</text><ellipse id="ellipse188" cx="0" cy="0" fill="#ff0" stroke="#000" rx="20" ry="15"/><text id="text190" x="0" y="0" text-anchor="middle">23,3</text></g></svg>